<?xml version="1.0" encoding="UTF-8" standalone="no"?>
<!DOCTYPE svg PUBLIC "-//W3C//DTD SVG 1.1//EN" "http://www.w3.org/Graphics/SVG/1.1/DTD/svg11.dtd">
<svg version="1.1" xmlns="http://www.w3.org/2000/svg" xmlns:xlink="http://www.w3.org/1999/xlink" preserveAspectRatio="xMidYMid meet" viewBox="88.05090595340815 -1.0000000000000009 58.00000000000003 58.00000000000001" width="54" height="54"><defs><path d="M137.99 21.94L121.11 21.94C121.11 11.81 121.11 6.19 121.11 5.06C121.11 2.27 118.85 0 116.05 0C113.25 0 110.99 2.27 110.99 5.06C110.99 6.19 110.99 11.81 110.99 21.94C100.86 21.94 95.24 21.94 94.11 21.94C91.32 21.94 89.05 24.2 89.05 27C89.05 29.8 91.32 32.06 94.11 32.06C95.24 32.06 100.86 32.06 110.99 32.06C110.99 42.19 110.99 47.81 110.99 48.94C110.99 51.73 113.25 54 116.05 54C118.85 54 121.11 51.73 121.11 48.94C121.11 47.81 121.11 42.19 121.11 32.06C131.24 32.06 136.86 32.06 137.99 32.06C140.78 32.06 143.05 29.8 143.05 27C143.05 24.2 140.78 21.94 137.99 21.94" id="c1bMc2vB2Q"></path></defs><g><g><use xlink:href="#c1bMc2vB2Q" opacity="1" fill="#414042" fill-opacity="1"></use><g><use xlink:href="#c1bMc2vB2Q" opacity="1" fill-opacity="0" stroke="#000000" stroke-width="1" stroke-opacity="0"></use></g></g></g></svg>